<?xml version="1.0" standalone="no"?>
<!DOCTYPE svg PUBLIC "-//W3C//DTD SVG 20010904//EN"
 "http://www.w3.org/TR/2001/REC-SVG-20010904/DTD/svg10.dtd">
<svg version="1.0" xmlns="http://www.w3.org/2000/svg"
 width="78.000000pt" height="78.000000pt" viewBox="0 0 78.000000 78.000000"
 preserveAspectRatio="xMidYMid meet">
<metadata>
Created by potrace 1.14, written by Peter Selinger 2001-2017
</metadata>
<g transform="translate(0.000000,78.000000) scale(0.100000,-0.100000)"
fill="#000000" stroke="none">
<path d="M355 728 c-19 -10 -64 -52 -57 -53 2 0 0 -8 -4 -18 -8 -23 12 -64 48
-98 27 -25 37 -49 20 -49 -4 0 -13 9 -20 20 -12 19 -13 18 -46 -18 -28 -32
-44 -65 -52 -107 -7 -45 -18 -75 -26 -75 -5 0 -7 -4 -4 -9 3 -4 -5 -18 -19
-31 -20 -18 -35 -22 -91 -22 -65 0 -104 -16 -104 -43 0 -16 75 -87 83 -79 4 4
7 2 7 -4 0 -7 10 -12 23 -12 13 0 27 -3 31 -8 9 -8 22 -10 124 -17 39 -3 72
-1 72 3 0 5 24 7 53 5 87 -7 170 -7 202 0 17 4 45 10 63 13 17 4 32 11 32 17
0 6 3 7 7 3 8 -8 83 63 83 79 0 27 -41 46 -98 44 -32 -1 -66 1 -77 5 -23 7
-55 58 -55 86 0 10 -4 21 -9 25 -6 3 -8 19 -6 35 2 17 -1 30 -6 30 -5 0 -9 6
-9 13 0 8 -13 26 -30 40 -30 27 -60 36 -60 17 0 -5 -4 -10 -10 -10 -20 0 -9
23 25 56 20 18 35 35 35 36 -1 2 2 11 5 21 14 34 -47 122 -69 100 -3 -3 -6 -1
-6 5 0 15 -29 15 -55 0z"/>
<path d="M646 415 c-3 -8 -1 -15 4 -15 6 0 10 7 10 15 0 8 -2 15 -4 15 -2 0
-6 -7 -10 -15z"/>
<path d="M75 350 c3 -5 11 -10 16 -10 6 0 7 5 4 10 -3 6 -11 10 -16 10 -6 0
-7 -4 -4 -10z"/>
<path d="M303 75 c-3 -9 -3 -18 -1 -21 3 -3 8 4 11 16 6 23 -1 27 -10 5z"/>
</g>
</svg>
